<?xml version="1.0" encoding="utf-8"?>
<!-- Generator: Adobe Illustrator 16.0.0, SVG Export Plug-In . SVG Version: 6.00 Build 0)  -->
<!DOCTYPE svg PUBLIC "-//W3C//DTD SVG 1.1//EN" "http://www.w3.org/Graphics/SVG/1.1/DTD/svg11.dtd">
<svg version="1.1" id="Layer_1" xmlns="http://www.w3.org/2000/svg" xmlns:xlink="http://www.w3.org/1999/xlink" x="0px" y="0px"
	 width="425.104px" height="87.791px" viewBox="0 0 425.104 87.791" enable-background="new 0 0 425.104 87.791"
	 xml:space="preserve">
<g>
	<g>
		<path d="M118.989,78.171c9.036-1.455,18.228-3.677,27.571-6.663c9.343-2.988,18.165-6.417,26.472-10.287
			c8.305-3.867,15.784-8.023,22.441-12.467c6.656-4.443,11.785-8.85,15.388-13.216c3.603-4.366,5.405-8.522,5.405-12.467
			s-2.505-7.335-7.512-10.17c-4.276-2.53-9.74-4.271-16.396-5.229c-6.659-0.958-13.923-1.303-21.801-1.035
			c-7.877,0.269-16.093,1.072-24.639,2.413c-8.551,1.341-16.854,3.065-24.915,5.171c-8.061,2.107-15.636,4.521-22.717,7.241
			c-7.084,2.718-13.129,5.573-18.137,8.56c-1.222,0.689-2.138,0.519-2.747-0.517c-0.613-1.035-0.733-2.47-0.367-4.31
			c0.367-1.839,1.434-3.851,3.206-6.032c1.769-2.185,4.425-4.081,7.969-5.689c6.839-3.063,14.473-5.61,22.899-7.641
			c8.428-2.028,17.066-3.543,25.922-4.541c8.854-0.993,17.679-1.415,26.472-1.263c8.793,0.153,16.946,0.9,24.457,2.241
			c7.511,1.341,14.167,3.274,19.97,5.804c5.799,2.527,10.228,5.67,13.28,9.421c2.932,3.832,4.243,7.74,3.939,11.722
			c-0.307,3.984-1.74,7.948-4.305,11.894c-2.564,3.946-6.108,7.757-10.626,11.434c-4.52,3.679-9.589,7.087-15.206,10.228
			c-8.673,4.828-18.657,9.215-29.952,13.159c-11.299,3.944-23.174,6.951-35.632,9.021c-12.457,2.068-25.161,3.005-38.105,2.815
			c-12.947-0.193-25.344-2.011-37.189-5.459c-2.564-0.767-4.703-1.533-6.411-2.299c-1.712-0.767-2.72-1.377-3.023-1.839
			c-0.307-0.459,0.183-0.67,1.466-0.631c1.282,0.037,3.692,0.477,7.235,1.321c8.061,2.067,16.64,3.12,25.739,3.16
			c9.097,0.037,18.045-0.557,26.839-1.78L118.989,78.171z"/>
		<path d="M236.782,45.537c0.486,0.306,1.22,0.441,2.198,0.402c0.977-0.04,1.984-0.174,3.022-0.402
			c1.037-0.23,2.016-0.499,2.932-0.805c0.916-0.305,1.558-0.575,1.923-0.804c0.244-0.306,0.885-0.462,1.925-0.462
			c1.036,0,2.105,0.137,3.206,0.402c1.099,0.271,2.106,0.652,3.022,1.149c0.915,0.499,1.494,1.092,1.74,1.782
			c0.12,0.613-0.338,1.494-1.374,2.644c-1.039,1.147-2.139,2.278-3.298,3.389c-1.162,1.112-2.046,2.088-2.655,2.932
			c-0.613,0.844-0.43,1.264,0.549,1.264c0.976,0,2.41-0.439,4.306-1.323c1.892-0.879,3.875-1.895,5.954-3.044
			c2.074-1.149,4.03-2.298,5.861-3.447c1.832-1.149,3.175-1.991,4.031-2.527c1.831-0.996,3.388-1.38,4.671-1.149
			c1.282,0.229,1.128,1.033-0.457,2.413c-0.733,0.688-1.864,1.686-3.391,2.986c-1.528,1.303-3.269,2.683-5.221,4.138
			c-1.955,1.455-4.03,2.835-6.229,4.136c-2.198,1.304-4.397,2.225-6.596,2.758c-0.979,0.231-2.353,0.231-4.121,0
			c-1.771-0.229-3.572-0.61-5.404-1.149c-1.833-0.533-3.421-1.243-4.764-2.125c-1.346-0.879-1.955-1.896-1.832-3.045
			c0-0.994,0.396-2.049,1.19-3.16c0.794-1.11,1.679-2.316,2.657-3.62c-2.198,0.385-4.46,0.422-6.778,0.114
			c-2.321-0.305-4.214-0.842-5.68-1.608c-1.466-0.765-2.318-1.703-2.564-2.815c-0.243-1.109,0.55-2.315,2.382-3.619
			c1.952-1.454,3.876-2.259,5.77-2.413c1.893-0.153,3.391,0.097,4.489,0.747c1.1,0.651,1.617,1.572,1.557,2.759
			C239.742,43.221,238.734,44.388,236.782,45.537z"/>
		<path d="M322.517,47.26c1.709-0.995,3.083-1.244,4.122-0.747c1.036,0.499,0.702,1.399-1.008,2.701
			c-0.979,0.689-2.321,1.705-4.03,3.046c-1.711,1.34-3.48,2.7-5.313,4.078c-1.832,1.38-3.664,2.606-5.495,3.677
			c-1.833,1.074-3.361,1.688-4.581,1.839c-1.588,0.231-3.818,0.077-6.687-0.459c-2.871-0.536-5.344-1.341-7.42-2.413
			c-1.588,0.688-3.113,1.36-4.579,2.011s-2.931,1.132-4.396,1.436c-1.346,0.156-2.994,0.116-4.947-0.114
			c-1.954-0.229-3.878-0.671-5.771-1.321c-1.895-0.65-3.572-1.437-5.038-2.355s-2.441-1.991-2.93-3.217
			c-0.487-1.304,0.03-2.855,1.557-4.655c1.528-1.8,3.389-3.505,5.587-5.113c2.199-1.608,4.488-3.007,6.87-4.195
			c2.382-1.187,4.242-1.817,5.587-1.896c0.854-0.074,1.924-0.037,3.206,0.116c1.282,0.154,2.564,0.422,3.847,0.805
			c1.282,0.385,2.443,0.844,3.481,1.378c1.036,0.538,1.74,1.149,2.107,1.839c1.709-0.918,3.175-1.34,4.396-1.264
			c0.976,0.154,2.015,0.346,3.113,0.574c1.101,0.23,2.107,0.499,3.023,0.804c0.916,0.308,1.678,0.69,2.289,1.149
			c0.61,0.46,0.854,0.958,0.733,1.494c0,0.613-0.489,1.438-1.465,2.471c-0.979,1.035-2.015,2.088-3.115,3.16
			c-1.099,1.074-2.015,2.03-2.748,2.874c-0.732,0.844-0.855,1.378-0.365,1.608c0.365,0.154,1.19-0.02,2.473-0.519
			c1.282-0.496,2.84-1.187,4.671-2.067c1.832-0.879,3.876-1.896,6.139-3.046C318.089,49.787,320.318,48.563,322.517,47.26z
			 M276.535,58.292c1.341,0.459,3.022,0.211,5.038-0.747c2.015-0.956,3.938-2.163,5.77-3.62c1.832-1.454,3.39-2.949,4.672-4.48
			c1.282-1.532,1.924-2.681,1.924-3.448c-0.49-0.689-1.346-0.881-2.565-0.575c-1.222,0.308-2.564,0.881-4.03,1.725
			c-1.465,0.844-2.963,1.877-4.487,3.104c-1.529,1.226-2.841,2.395-3.939,3.503c-1.099,1.111-1.924,2.109-2.474,2.988
			C275.894,57.621,275.922,58.14,276.535,58.292z"/>
		<path d="M354.024,41.285c0.732-0.46,1.678-0.594,2.84-0.402c1.159,0.191,2.29,0.573,3.389,1.149
			c1.101,0.573,2.107,1.264,3.023,2.067c0.916,0.805,1.494,1.515,1.74,2.125c0.119,0.615-0.307,1.457-1.282,2.529
			c-0.979,1.072-1.986,2.165-3.022,3.274c-1.04,1.112-1.864,2.125-2.474,3.046c-0.612,0.919-0.489,1.494,0.367,1.723
			c0.853,0.154,2.289-0.287,4.305-1.32c2.015-1.035,4.241-2.316,6.687-3.85c-1.1-0.996-1.497-2.086-1.19-3.274
			c0.304-1.188,0.976-2.26,2.015-3.218c1.037-0.958,2.29-1.782,3.755-2.473c1.466-0.688,2.932-1.032,4.397-1.032h0.184
			c1.586,0,2.776,0.229,3.572,0.688c0.792,0.462,1.22,1.075,1.282,1.84c0.061,0.767-0.184,1.608-0.733,2.529
			c-0.549,0.918-1.253,1.837-2.106,2.758c1.709,0.688,4.03,1.033,6.961,1.033c2.932,0,5.74-0.805,8.428-2.413
			c0.61-0.383,1.282-0.65,2.016-0.805c0.732-0.151,1.311-0.211,1.74-0.171c0.427,0.039,0.669,0.211,0.732,0.516
			c0.06,0.308-0.275,0.729-1.007,1.264c-1.712,1.227-3.573,2.318-5.589,3.274c-2.015,0.961-4.121,1.708-6.32,2.242
			c-2.197,0.536-4.428,0.824-6.686,0.861c-2.262,0.039-4.489-0.286-6.688-0.976c-3.178,1.993-6.411,3.753-9.709,5.285
			c-3.297,1.533-6.352,2.298-9.16,2.298c-0.733,0-1.62-0.19-2.656-0.573c-1.039-0.382-2.079-0.863-3.114-1.438
			c-1.039-0.575-1.955-1.224-2.749-1.953c-0.795-0.728-1.313-1.397-1.557-2.011c-0.366-0.613-0.581-1.225-0.641-1.84
			c-0.063-0.61-0.092-1.224-0.092-1.837c-1.465,0.844-3.023,1.8-4.671,2.872c-1.649,1.072-3.298,2.068-4.947,2.986
			c-1.648,0.921-3.177,1.708-4.579,2.356c-1.405,0.652-2.657,0.978-3.756,0.978c-0.612,0-1.466-0.134-2.564-0.402
			c-1.099-0.268-2.229-0.633-3.39-1.092c-1.159-0.459-2.227-0.976-3.205-1.552c-0.978-0.573-1.526-1.206-1.649-1.896
			c-0.12-0.688,0.307-1.798,1.282-3.331c0.979-1.532,2.198-3.178,3.664-4.942c1.466-1.761,3.083-3.466,4.854-5.114
			c1.77-1.646,3.39-2.929,4.854-3.848c0.732-0.383,1.71-0.479,2.932-0.288c1.22,0.191,2.441,0.536,3.664,1.033
			c1.219,0.501,2.318,1.092,3.298,1.782c0.976,0.689,1.585,1.341,1.831,1.953c0.12,0.385-0.154,0.959-0.823,1.724
			c-0.674,0.767-1.559,1.608-2.657,2.529c-1.099,0.918-2.198,1.856-3.298,2.814c-1.099,0.958-2.077,1.8-2.932,2.527
			c-0.855,0.729-1.373,1.283-1.557,1.668c-0.184,0.383,0.151,0.46,1.008,0.229c0.732-0.229,1.678-0.633,2.839-1.206
			c1.16-0.574,2.443-1.264,3.849-2.068c1.401-0.804,2.867-1.686,4.396-2.644c1.526-0.956,2.96-1.896,4.306-2.815
			c0.854-1.072,1.832-2.01,2.932-2.814C351.46,42.836,352.68,42.052,354.024,41.285z"/>
		<path d="M406.053,47.26c2.564-0.23,4.974-0.248,7.235-0.057c2.259,0.19,4.274,0.516,6.046,0.976
			c1.769,0.459,3.174,1.074,4.214,1.839c1.036,0.768,1.557,1.648,1.557,2.644c0,0.996-0.521,2.183-1.557,3.563
			c-1.04,1.378-2.382,2.721-4.03,4.021c-1.649,1.304-3.544,2.49-5.68,3.563c-2.139,1.074-4.185,1.763-6.137,2.067
			c-2.078,0.309-4.093,0.271-6.046-0.114c-1.955-0.382-3.695-0.958-5.222-1.723c-1.524-0.767-2.776-1.628-3.755-2.586
			c-0.977-0.958-1.465-1.82-1.465-2.587c0-0.534,0.337-1.147,1.008-1.837c0.672-0.69,1.557-1.36,2.655-2.011
			c1.1-0.65,2.318-1.266,3.664-1.84c1.343-0.573,2.685-1.053,4.03-1.438c2.075-0.61,3.298-0.63,3.664-0.057
			c0.367,0.576-0.063,1.283-1.282,2.127c-0.366,0.229-0.947,0.631-1.741,1.207c-0.795,0.573-1.589,1.149-2.381,1.723
			c-0.795,0.573-1.466,1.132-2.015,1.666c-0.55,0.538-0.642,0.921-0.275,1.149c0.61,0.308,1.677,0.134,3.206-0.517
			c1.525-0.65,3.052-1.494,4.58-2.529c1.525-1.033,2.868-2.068,4.03-3.102c1.159-1.034,1.677-1.819,1.558-2.355
			c-0.246-0.536-1.101-0.784-2.564-0.747c-1.466,0.04-3.115,0.077-4.947,0.114c-1.832,0.04-3.695-0.037-5.587-0.23
			c-1.896-0.189-3.326-0.745-4.306-1.666c-1.1-0.993-1.557-2.125-1.374-3.389c0.184-1.266,0.765-2.473,1.74-3.621
			c0.979-1.149,2.228-2.125,3.756-2.93c1.526-0.805,3.022-1.281,4.488-1.438c0.976-0.074,2.016,0.04,3.114,0.346
			c1.1,0.308,2.107,0.709,3.022,1.206c0.916,0.499,1.678,1.055,2.29,1.666c0.609,0.615,0.916,1.188,0.916,1.725
			c0,1.072-0.795,1.954-2.381,2.644C408.494,45.421,407.151,46.265,406.053,47.26z"/>
	</g>
	<path d="M32.861,50.253c2.441-1.38,4.274-1.8,5.496-1.266c1.22,0.538,0.733,1.648-1.466,3.334
		c-1.466,1.149-3.237,2.355-5.313,3.619c-2.078,1.264-4.186,2.452-6.32,3.563c-2.138,1.111-4.122,2.067-5.955,2.872
		c-1.832,0.804-3.237,1.285-4.212,1.437c-1.346,0.077-2.903-0.074-4.672-0.459c-1.771-0.382-3.481-0.958-5.129-1.725
		c-1.649-0.765-2.994-1.703-4.03-2.815c-1.036-1.109-1.434-2.355-1.191-3.733c0.246-1.304,0.824-2.738,1.74-4.31
		c0.917-1.569,1.983-3.007,3.206-4.31c1.219-1.301,2.442-2.373,3.664-3.217c1.22-0.842,2.318-1.225,3.297-1.149
		c0.854,0.153,1.769,0.364,2.748,0.631c0.977,0.27,1.861,0.575,2.657,0.92c0.792,0.346,1.434,0.748,1.923,1.207
		c0.487,0.459,0.67,0.995,0.551,1.608c-0.123,0.613-0.674,1.515-1.649,2.701c-0.979,1.188-1.955,2.396-2.932,3.619
		c-0.979,1.227-1.832,2.338-2.564,3.331c-0.733,0.998-0.856,1.611-0.366,1.84c0.366,0.153,1.25,0.057,2.656-0.288
		c1.403-0.345,3.051-0.861,4.947-1.552c1.892-0.688,3.967-1.531,6.229-2.527C28.433,52.589,30.663,51.479,32.861,50.253z
		 M25.9,38.99c-0.733,0-1.649-0.114-2.748-0.345c-1.1-0.229-2.107-0.534-3.023-0.919c-0.916-0.382-1.649-0.821-2.198-1.322
		c-0.55-0.497-0.765-1.014-0.642-1.552c0.121-0.459,0.458-1.07,1.008-1.837c0.55-0.765,1.191-1.513,1.924-2.242
		c0.733-0.727,1.557-1.357,2.474-1.896c0.915-0.533,1.8-0.879,2.656-1.032c0.854-0.077,1.892,0.02,3.115,0.285
		c1.219,0.271,2.381,0.653,3.481,1.149c1.099,0.499,1.983,1.035,2.656,1.608c0.67,0.576,0.945,1.056,0.824,1.438
		c0,0.459-0.366,1.055-1.099,1.782s-1.589,1.436-2.565,2.125c-0.979,0.69-2.015,1.303-3.115,1.84
		C27.548,38.608,26.632,38.916,25.9,38.99z"/>
	<path d="M117.251,37.094c-1.162-0.65-2.779-1.264-4.854-1.837c-1.506-0.418-3.165-0.78-4.894-1.116l0.044-0.011
		c0,0-11.111-3.093-23.206,0c-5.295,1.354-6.547,1.946-7.225,2.184c-3.509,0.022-6.908,0.033-10.181,0.033
		c-0.979-0.919-2.322-1.74-4.03-2.47c-1.712-0.728-3.298-1.093-4.764-1.093c-1.588,0-3.237,0.346-4.946,1.035
		c-1.711,0.69-3.544,1.571-5.495,2.644c-7.085,0.154-10.932,0.422-11.542,0.805c-1.346,0.919,0.853,1.763,6.595,2.527
		c-2.932,2.375-5.559,5.039-7.877,7.985c-2.318,2.952-3.784,5.71-4.397,8.274c-0.61,2.568-0.152,4.711,1.375,6.437
		c1.525,1.723,4.792,2.584,9.801,2.584c2.441,0,5.341-0.61,8.701-1.837c3.358-1.227,6.595-2.624,9.71-4.195
		c3.114-1.568,5.83-3.103,8.152-4.597c2.318-1.495,3.784-2.471,4.397-2.93c1.099-0.921,1.159-1.646,0.182-2.185
		c-0.979-0.534-2.564-0.345-4.763,0.576c-1.099,0.385-3.085,1.246-5.953,2.584c-2.871,1.343-5.863,2.701-8.977,4.081
		c-3.114,1.378-6.017,2.566-8.701,3.563c-2.689,0.995-4.397,1.34-5.13,1.032c-0.856-0.382-1.008-1.092-0.458-2.125
		c0.55-1.035,1.558-2.241,3.022-3.619c1.466-1.38,3.267-2.874,5.405-4.483c2.135-1.608,4.305-3.14,6.504-4.595
		c2.198-1.455,4.333-2.798,6.412-4.023c2.075-1.225,3.784-2.143,5.129-2.758c9.804-0.295,3.177-0.467,12.457-0.513
		c8.628,0.04,1.467,0.095,10.339,0.169c9.22,0.077-1.304,0.135,5.72,0.172c7.022,0.04,12.67,0.04,16.947,0
		c4.273-0.037,6.654-0.211,7.144-0.517C118.625,38.34,118.41,37.747,117.251,37.094z"/>
	<path d="M105.982,80.241c-0.469-2.576,0.151-5.728,1.191-9.366c1.036-3.637,2.474-7.43,4.305-11.377
		c1.832-3.944,3.999-7.871,6.503-11.779c2.501-3.907,5.067-7.449,7.694-10.629c2.625-3.178,5.189-5.821,7.695-7.929
		c2.502-2.105,4.792-3.352,6.87-3.734c1.953-0.305,3.968-0.461,6.045-0.461c2.076,0,3.875,0.136,5.404,0.402
		c1.526,0.27,2.625,0.652,3.298,1.149c0.669,0.498,0.578,1.017-0.275,1.551c-2.321,1.686-5.252,4.329-8.792,7.929
		c-3.545,3.603-7.085,7.721-10.626,12.355c-3.543,4.634-6.841,9.537-9.893,14.708c-3.054,5.171-5.192,10.21-6.411,15.11
		C118.989,78.171,108.027,91.475,105.982,80.241z"/>
</g>
</svg>

