<?xml version="1.0" encoding="utf-8"?>
<!-- Generator: Adobe Illustrator 16.0.0, SVG Export Plug-In . SVG Version: 6.00 Build 0)  -->
<!DOCTYPE svg PUBLIC "-//W3C//DTD SVG 1.1//EN" "http://www.w3.org/Graphics/SVG/1.1/DTD/svg11.dtd">
<svg version="1.1" id="Layer_1" xmlns="http://www.w3.org/2000/svg" xmlns:xlink="http://www.w3.org/1999/xlink" x="0px" y="0px"
	 width="259.827px" height="97.652px" viewBox="0 0 259.827 97.652" enable-background="new 0 0 259.827 97.652"
	 xml:space="preserve">
<g>
	<path d="M16.952,94.488l-3.88-0.597c-0.916,0-1.851,0.478-2.806,1.432c-1.831,0-2.984-0.319-3.462-0.955H6.506
		c-3.741,0-5.909-0.696-6.506-2.089c0-0.915,0.934-1.373,2.805-1.373l2.686,0.12c1.631,0,2.467-1.173,2.507-3.521
		c0.039-2.348-0.07-5.213-0.328-8.596c-0.259-3.381-0.418-6.745-0.478-10.087c-0.06-3.342-0.289-9.849-0.687-19.518
		C6.107,39.634,5.849,32.69,5.73,28.472l0.119-14.326c0-3.939-0.119-6.307-0.358-7.103L1.313,7.939C0.437,7.939,0,7.372,0,6.238
		c0-1.134,1.791-2.069,5.372-2.806c3.582-0.736,6.008-1.104,7.282-1.104c2.149,0,3.223,0.667,3.223,2c0,1.333-0.498,2-1.492,2
		L11.46,6.208c-1.393,0-2.229,0.656-2.507,1.97c-0.279,1.074-0.418,4.238-0.418,9.49c0,5.253,0.507,15.659,1.522,31.218
		c1.015,15.559,1.522,27.258,1.522,35.097l-0.12,6.327l4.417-0.358c2.109,0,3.164,1.015,3.164,3.044L16.952,94.488z"/>
	<path d="M44.349,62.435l0.597,28.472c0,3.184-0.697,4.775-2.089,4.775c-0.835,0-1.473-0.567-1.91-1.701
		c-0.438-1.134-0.656-2.198-0.656-3.193l1.015-20.056c0-4.297-0.289-10.793-0.866-19.488c-0.577-8.694-0.865-15.23-0.865-19.608
		l0.119-11.46c0-8.396-0.696-12.595-2.089-12.595L30.68,8.297c-0.597,0-1.174-0.188-1.731-0.567
		c-0.558-0.378-0.835-0.885-0.835-1.522c0-0.836,2.706-1.631,8.118-2.388c5.411-0.755,9.709-1.134,12.893-1.134
		c0.597,0,1.173,0.209,1.731,0.627c0.557,0.418,0.835,0.906,0.835,1.462c0,1.194-0.776,1.791-2.328,1.791l-4.537-0.358
		c-1.393,0-2.249,0.417-2.566,1.253c0.597,5.133,0.895,10.426,0.895,15.877l-0.179,14.803c0,9.63,0.576,16.555,1.731,20.772
		C44.468,60.107,44.349,61.281,44.349,62.435z"/>
	<path d="M65.598,77.119l0.119-4.895c0-4.775-0.279-10.326-0.835-16.653c-0.558-6.327-0.896-10.267-1.015-11.818
		c-0.358-0.755-0.558-5.859-0.597-15.311c-0.041-9.45-0.13-14.693-0.269-15.728c-0.14-1.034-0.478-2.268-1.015-3.701
		s-0.806-2.566-0.806-3.402c0-1.949,3.064-2.925,9.192-2.925h0.597c3.104,0,6.446,1.711,10.028,5.133
		c3.582,3.423,5.918,6.506,7.014,9.252c1.094,2.746,1.82,6.039,2.178,9.878c0.358,3.841,0.606,7.352,0.746,10.535
		c0.139,3.184,0.408,5.193,0.806,6.029l-0.239,3.283l0.358,0.597l-0.358,1.015l0.358,0.597c-0.478,0.756-0.716,1.891-0.716,3.402
		c0,1.513-0.08,2.905-0.239,4.178c-0.159,1.274-0.319,2.269-0.478,2.985c-0.159,0.716-0.428,1.781-0.806,3.193
		c-0.378,1.413-0.946,3.671-1.701,6.774c-2.229,8.755-5.93,15.221-11.102,19.399c-5.173,4.178-8.228,6.268-9.163,6.268
		c-0.935,0-1.89-0.209-2.865-0.627c-0.976-0.417-1.522-1.024-1.642-1.82c1.154-1.472,1.791-3.104,1.91-4.895L65.598,77.119z
		 M65.956,8.417l1.075,20.294c0,5.252,0.308,13.042,0.925,23.368c0.616,10.326,0.925,17.31,0.925,20.951
		c0,3.641-0.08,7.651-0.239,12.028l0.239,0.478v3.462h0.597c3.063-1.631,5.769-3.97,8.118-7.014c2.348-3.044,4.168-6.227,5.461-9.55
		c1.293-3.322,2.358-6.954,3.193-10.893c1.313-6.447,1.97-12.693,1.97-18.743c0-23.835-6.565-35.754-19.697-35.754
		C66.891,7.043,66.036,7.501,65.956,8.417z"/>
	<path d="M105.411,5.372l-0.238-2.208c0-0.716,0.815-1.074,2.447-1.074c3.342,0,5.899,0.936,7.67,2.805
		c1.77,1.871,2.944,3.88,3.521,6.029c0.577,2.149,1.024,3.781,1.343,4.895c0.676,2.428,1.015,4.318,1.015,5.67
		c0,4.099-1.134,9.034-3.402,14.803c-1.473,3.662-2.208,5.691-2.208,6.088c0,3.98,1.591,12.008,4.775,24.085
		c3.183,12.078,5.79,20.643,7.82,25.696c0,2.666-0.537,3.999-1.612,3.999c-0.835,0-1.521-0.369-2.059-1.104
		c-0.537-0.736-0.865-1.164-0.985-1.283c-0.239-3.183-1.283-7.61-3.133-13.281c-1.851-5.67-2.985-9.451-3.402-11.341
		c-0.418-1.89-1.164-5.74-2.239-11.55c-1.074-5.809-2.029-10.266-2.865-13.37l-0.955-0.716l-2.328,0.955V90.31l0.239,3.044
		c0,1.631-0.737,2.447-2.208,2.447c-0.597,0-1.095-0.189-1.492-0.567c-0.398-0.377-0.597-0.865-0.597-1.462l0.418-0.657
		l0.477-74.193V5.372z M108.813,5.969l-0.597,26.681c0,3.502,0.119,6.108,0.358,7.819h0.239c0.597,0,1.661-0.836,3.193-2.507
		c1.532-1.671,2.586-3.004,3.164-3.999c0.577-0.994,1.045-2.646,1.403-4.954c0.358-2.308,0.537-4.228,0.537-5.76
		c0-1.531-0.11-3.134-0.328-4.805c-0.219-1.671-0.567-3.482-1.044-5.432c-0.478-1.949-1.234-3.571-2.269-4.864
		c-1.035-1.293-2.249-1.94-3.641-1.94V5.85L108.813,5.969z"/>
	<path d="M167.309,59.152l1.373,31.874v1.313c0,0.955-0.119,1.552-0.358,1.791c-0.637,0.558-1.334,0.835-2.089,0.835
		c-0.757,0-1.373-0.199-1.851-0.597c-0.478-0.397-0.716-0.896-0.716-1.493c0.238-0.477,0.357-0.955,0.357-1.432l-0.357-2.447V76.88
		c0-1.074-2.149-2-6.447-2.775c-4.297-0.776-7.481-1.164-9.55-1.164c-0.797,0-1.513,1.483-2.148,4.447
		c-0.638,2.965-1.254,6.218-1.851,9.759c-0.597,3.542-1.194,5.75-1.791,6.625c-1.91,0-3.163-0.497-3.76-1.492
		c1.272-1.83,2.496-6.287,3.67-13.371c1.174-7.083,2.119-12.226,2.836-15.43c0.716-3.203,1.999-10.156,3.85-20.861
		c1.851-10.704,3.104-17.558,3.761-20.563c0.656-3.004,1.164-5.223,1.521-6.655c0.358-1.433,0.815-3.124,1.373-5.074
		c1.313-4.695,2.486-7.043,3.521-7.043c1.273,0,2.119,0.289,2.537,0.865c0.418,0.578,0.776,1.931,1.074,4.059
		c0.299,2.129,0.598,4.835,0.896,8.118c0.299,3.283,0.567,6.297,0.806,9.043c0.756,8.595,1.224,14.246,1.403,16.952
		c0.179,2.707,0.546,4.656,1.104,5.85c-0.159,2.468-0.238,4.587-0.238,6.357C166.235,56.297,166.593,57.839,167.309,59.152z
		 M147.253,69.538c3.422,1.155,7.541,1.731,12.355,1.731c0.994,0,1.731-0.079,2.209-0.239l0.597,0.239
		c0.756,0,1.134-0.377,1.134-1.134c0-17.031-1.592-35.396-4.774-55.093c-0.04-0.239-0.13-0.676-0.269-1.313
		c-0.141-0.636-0.209-1.134-0.209-1.492c-0.995,2.826-1.532,4.617-1.612,5.372l0.358,0.716c-0.278,0.279-0.736,1.682-1.373,4.208
		c-0.637,2.528-1.521,7.74-2.656,15.639c-1.134,7.899-1.95,12.973-2.447,15.221c-0.498,2.249-1.024,4.289-1.581,6.118
		c-1.155,4.059-1.731,7.163-1.731,9.312V69.538z"/>
	<path d="M201.272,32.113l-0.12,0.239c-0.278,1.354-0.438,3.393-0.478,6.118c-0.04,2.726-0.397,5.671-1.074,8.834
		c-0.677,3.164-1.482,10.735-2.417,22.712c-0.936,11.978-1.403,20.175-1.403,24.592c0,0.279-0.238,0.676-0.716,1.193
		c-0.478,0.517-0.985,0.776-1.522,0.776s-1.024-0.269-1.462-0.806c-0.438-0.537-0.746-1.313-0.926-2.328
		c-0.179-1.015-0.309-1.9-0.388-2.656c-0.08-1.313-0.14-2.865-0.179-4.656c-0.04-1.791-0.189-3.621-0.448-5.491
		c-0.259-1.87-0.606-3.97-1.044-6.297c-0.438-2.328-0.767-4.258-0.985-5.79c-0.219-1.531-0.965-7.729-2.238-18.593
		c-3.383-28.77-5.531-43.872-6.446-45.304c0.597-1.074,1.382-1.611,2.357-1.611c0.975,0,1.761,0.746,2.358,2.238
		c0.597,1.492,1.044,3.453,1.343,5.879c0.298,2.428,0.526,4.755,0.687,6.983c0.158,2.229,0.288,4.477,0.388,6.745
		c0.099,2.268,0.299,4.975,0.597,8.118c0.299,3.144,1.233,10.108,2.806,20.891c1.571,10.784,2.616,18.325,3.134,22.623h0.238
		c0-3.859,0.309-8.287,0.926-13.281c0.616-4.993,0.984-8.127,1.104-9.401c0.119-1.273,0.367-2.835,0.746-4.686
		c0.377-1.851,0.605-3.303,0.686-4.357c0.08-1.054,0.249-4.068,0.508-9.043c0.259-4.974,0.467-8.216,0.627-9.729
		c0.158-1.512,0.367-3.173,0.627-4.984c0.258-1.81,0.388-3.213,0.388-4.208l-0.119-2.208c0-1.034,0.576-1.83,1.73-2.388
		c2.427,0,3.642,0.716,3.642,2.149l-0.598,1.612c0,9.073,1.691,19.897,5.074,32.471c3.382,12.575,5.073,23.18,5.073,31.814
		l0.358,0.239c0.238-0.955,0.467-3.402,0.687-7.342c0.218-3.939,0.854-10.028,1.91-18.265c1.054-8.237,1.681-14.046,1.88-17.429
		c0.198-3.382,0.726-8.634,1.582-15.758c0.854-7.123,1.283-12.614,1.283-16.474l-0.119-2.328c0-1.949,1.054-2.925,3.163-2.925
		c0.517,0,1.034,0.189,1.552,0.567c0.517,0.378,0.776,0.905,0.776,1.582c0,0.677-0.438,1.373-1.313,2.089
		c0.079,0.159,0.119,0.417,0.119,0.776c0,0.518-0.159,1.413-0.478,2.686c-0.558,4.736-1.363,13.719-2.417,26.95
		c-1.055,13.231-2.388,24.592-3.999,34.083c-1.612,9.491-2.418,17.181-2.418,23.07v1.791c0,0.955-0.14,1.691-0.418,2.208
		c-0.278,0.517-0.875,0.776-1.79,0.776c-1.91,0-3.383-6.268-4.417-18.802c-0.319-3.78-1.582-11.022-3.79-21.727
		c-2.209-10.704-3.632-18.603-4.269-23.697L201.272,32.113z M214.105,80.879c-0.16,0-0.239,0.06-0.239,0.179L214.105,80.879z"/>
	<path d="M255.291,53.661l-0.119,0.478c0,0.04,0.935,3.184,2.806,9.431c1.232,4.855,1.85,8.595,1.85,11.222
		c0,2.626-0.309,5.193-0.925,7.7c-0.617,2.507-1.513,4.915-2.686,7.223c-1.175,2.308-2.786,4.208-4.835,5.7
		c-2.051,1.492-4.021,2.238-5.909,2.238c-1.891,0-3.234-0.04-4.029-0.12c-2.349-0.238-3.999-1.214-4.954-2.924
		c0-0.995,0.427-1.493,1.283-1.493c0.855,0,2.009,0.309,3.462,0.925c1.452,0.618,2.835,0.925,4.148,0.925s2.716-0.755,4.208-2.268
		c1.492-1.512,2.636-3.382,3.432-5.611c1.592-4.537,2.388-8.784,2.388-12.744c0-3.959-0.597-7.988-1.79-12.087
		c-1.194-4.098-2.656-7.839-4.388-11.221c-1.73-3.382-3.452-6.765-5.163-10.147c-4.099-8.038-6.147-15.639-6.147-22.801
		c0-5.929,1.79-10.664,5.372-14.206c1.949-1.87,4.237-2.805,6.864-2.805c0.835,0,1.91,0.328,3.223,0.985
		c1.313,0.656,2.109,1.343,2.388,2.059l-0.716,1.373c-1.831,0-3.164-0.418-4-1.253c-1.949,0-3.621,0.737-5.014,2.208
		c-2.626,2.707-3.939,6.248-3.939,10.625c0,3.223,0.259,5.9,0.776,8.028c0.517,2.129,0.915,3.751,1.193,4.865
		c0.278,1.114,0.776,2.527,1.492,4.238c0.717,1.711,1.243,2.984,1.582,3.82c0.338,0.835,0.994,2.208,1.97,4.118
		c0.975,1.91,1.611,3.144,1.91,3.701c0.299,0.558,1.034,1.901,2.208,4.029C254.405,52,255.091,53.264,255.291,53.661z"/>
</g>
</svg>
