<?xml version="1.0" encoding="utf-8"?>
<!-- Generator: Adobe Illustrator 16.0.0, SVG Export Plug-In . SVG Version: 6.00 Build 0)  -->
<!DOCTYPE svg PUBLIC "-//W3C//DTD SVG 1.1//EN" "http://www.w3.org/Graphics/SVG/1.1/DTD/svg11.dtd">
<svg version="1.1" id="Layer_1" xmlns="http://www.w3.org/2000/svg" xmlns:xlink="http://www.w3.org/1999/xlink" x="0px" y="0px"
	 width="453.826px" height="133.284px" viewBox="0 0 453.826 133.284" enable-background="new 0 0 453.826 133.284"
	 xml:space="preserve">
<g>
	<g>
		<path fill="#E92629" d="M50.659,17.908c7.095,1.178,13.094,4.228,17.991,9.171c6.424,6.492,9.64,14.622,9.64,24.395
			c0,9.958-3.267,18.175-9.807,24.657c-6.536,6.472-14.856,9.708-24.943,9.708c-6.428,0-12.336-1.533-17.729-4.61
			c-5.395-3.067-9.444-7.348-12.149-12.835c-1.46-2.971-2.495-6-3.167-9.092v33.044h74.831V17.908H50.659z"/>
		<path fill="#231F20" d="M133.955,25.801h-15.988v7.187h7.909v16.277c-4.141-4.416-8.986-6.627-14.543-6.627
			c-5.242,0-9.938,1.954-14.11,5.867c-4.166,3.906-6.248,9.248-6.248,16.024c0,6.744,2.021,11.951,6.076,15.603
			c4.057,3.651,8.761,5.484,14.117,5.484c5.785,0,10.683-2.24,14.709-6.719v6.036h15.47v-7.184h-7.391V25.801z M121.86,74.588
			c-2.678,2.563-5.75,3.845-9.205,3.845c-3.57,0-6.642-1.222-9.206-3.656c-2.564-2.439-3.847-5.925-3.847-10.46
			c0-3.994,1.248-7.359,3.743-10.097c2.493-2.735,5.567-4.103,9.225-4.103c3.401,0,6.468,1.161,9.206,3.488
			c2.732,2.326,4.1,5.766,4.1,10.331C125.875,68.468,124.528,72.019,121.86,74.588 M229.262,33.201h6.93v16.917h-25.719V33.201
			h6.972v-7.4h-22.62v7.4h6.716V77.54h-6.716v0.209h-6.463V25.801h-15.981v7.187h7.906v16.277
			c-4.136-4.416-8.985-6.627-14.537-6.627c-5.248,0-9.95,1.954-14.119,5.867c-4.167,3.906-6.248,9.248-6.248,16.024
			c0,6.744,2.031,11.951,6.083,15.603c4.051,3.651,8.757,5.484,14.11,5.484c5.785,0,10.683-2.24,14.711-6.719v6.036h37.157V77.54
			h-6.972V57.516h25.719V77.54h-6.93v7.393h22.62V77.54h-6.766V33.201h6.766v-7.4h-22.62V33.201z M176.27,74.588
			c-2.684,2.563-5.751,3.845-9.203,3.845c-3.577,0-6.639-1.222-9.198-3.656c-2.571-2.439-3.848-5.925-3.848-10.46
			c0-3.994,1.247-7.359,3.736-10.097c2.492-2.735,5.574-4.103,9.224-4.103c3.402,0,6.472,1.161,9.204,3.488
			c2.739,2.326,4.103,5.766,4.103,10.331C180.288,68.468,178.948,72.019,176.27,74.588 M279.084,42.638
			c-6.033,0-11.152,2.034-15.346,6.096c-4.189,4.071-6.29,9.281-6.29,15.626c0,6.349,2.07,11.564,6.224,15.639
			c4.156,4.084,9.294,6.12,15.412,6.12c5.95,0,11.048-2.011,15.284-6.031c4.232-4.027,6.355-9.269,6.355-15.728
			c0-6.462-2.129-11.698-6.382-15.71C290.098,44.64,285.009,42.638,279.084,42.638 M288.414,74.283
			c-2.509,2.624-5.616,3.934-9.33,3.934c-3.656,0-6.75-1.294-9.29-3.893c-2.533-2.594-3.804-5.925-3.804-9.987
			c0-3.918,1.236-7.213,3.697-9.877c2.467-2.668,5.601-4.001,9.396-4.001c3.625,0,6.719,1.306,9.268,3.912
			c2.552,2.614,3.829,5.934,3.829,9.967C292.181,68.344,290.926,71.657,288.414,74.283 M386.003,43.145
			c-3.123,0-5.58,0.257-7.383,0.765c-1.8,0.515-3.502,1.563-5.121,3.148c-1.614,1.588-2.879,3.583-3.785,5.995v-9.271h-14.749v7.188
			h8.291v26.78h-18.159V43.781h-15.343v7.188h7.269v22.277c-4.249,3.567-8.247,5.354-11.988,5.354c-1.248,0-2.283-0.341-3.1-1.016
			c-0.823-0.682-1.317-1.551-1.491-2.599c-0.174-1.05-0.254-3.087-0.254-6.124V43.781h-13.902v7.188h5.828v18.914
			c0,4.256,0.293,7.338,0.891,9.25c0.592,1.906,1.793,3.475,3.592,4.675c1.8,1.205,4.07,1.808,6.82,1.808
			c4.339,0,8.867-1.803,13.604-5.402v4.72h43.279v-7.184h-8.97v-9.051c0-5.609,0.493-9.505,1.469-11.668
			c0.979-2.174,2.481-3.665,4.501-4.486c2.024-0.822,5.095-1.234,9.21-1.234h1.613v-8.165H386.003z"/>
		<polygon fill="#F8B518" points="22.281,0 43.381,51.104 0,16.827 		"/>
		<g>
			<path fill="#E92629" d="M396.933,68.207c0-2.207-0.046-4.02-0.177-5.787h3.444l0.222,3.535h0.09
				c1.06-2.034,3.534-4.02,7.069-4.02c2.961,0,7.555,1.767,7.555,9.1v12.77h-3.889V71.478c0-3.447-1.283-6.319-4.949-6.319
				c-2.563,0-4.554,1.811-5.214,3.977c-0.179,0.485-0.263,1.149-0.263,1.812v12.857h-3.889V68.207z"/>
			<path fill="#E92629" d="M423.61,73.821c0.088,5.257,3.444,7.422,7.333,7.422c2.785,0,4.466-0.488,5.921-1.105l0.664,2.784
				c-1.371,0.616-3.71,1.324-7.113,1.324c-6.586,0-10.517-4.33-10.517-10.778c0-6.453,3.8-11.532,10.03-11.532
				c6.981,0,8.837,6.14,8.837,10.074c0,0.794-0.089,1.414-0.134,1.812H423.61z M435.01,71.035c0.044-2.475-1.016-6.317-5.391-6.317
				c-3.932,0-5.654,3.623-5.966,6.317H435.01z"/>
			<path fill="#E92629" d="M448.257,56.279v6.141h5.569v2.959h-5.569v11.533c0,2.65,0.752,4.151,2.918,4.151
				c1.018,0,1.768-0.131,2.251-0.263l0.18,2.917c-0.751,0.308-1.944,0.527-3.447,0.527c-1.813,0-3.271-0.572-4.197-1.633
				c-1.106-1.15-1.502-3.05-1.502-5.569V65.379h-3.314V62.42h3.314v-5.126L448.257,56.279z"/>
		</g>
		<g>
			<path fill="#F8B518" d="M391.575,81.871c0,2.349-1.901,4.247-4.247,4.247c-2.342,0-4.244-1.898-4.244-4.247
				c0-2.344,1.902-4.247,4.244-4.247C389.674,77.624,391.575,79.526,391.575,81.871"/>
		</g>
	</g>
	<g>
		<path fill="#5E5E5E" d="M32.882,115.376l-1.682,1.291c-0.928-1.208-2.042-2.125-3.342-2.748c-1.301-0.624-2.729-0.936-4.285-0.936
			c-1.702,0-3.277,0.408-4.727,1.225c-1.45,0.817-2.574,1.915-3.372,3.292c-0.797,1.377-1.196,2.927-1.196,4.647
			c0,2.601,0.892,4.771,2.675,6.511c1.783,1.74,4.033,2.61,6.75,2.61c2.987,0,5.486-1.169,7.497-3.508l1.682,1.275
			c-1.063,1.354-2.39,2.4-3.98,3.14c-1.591,0.739-3.367,1.109-5.329,1.109c-3.731,0-6.675-1.243-8.831-3.727
			c-1.808-2.098-2.711-4.63-2.711-7.598c0-3.122,1.095-5.75,3.284-7.881c2.19-2.131,4.933-3.197,8.229-3.197
			c1.992,0,3.79,0.394,5.394,1.182C30.542,112.851,31.857,113.955,32.882,115.376z"/>
		<path fill="#5E5E5E" d="M43.779,116.971h2.073v2.306c0.619-0.908,1.271-1.587,1.958-2.037c0.687-0.45,1.402-0.674,2.146-0.674
			c0.561,0,1.16,0.179,1.798,0.536l-1.059,1.711c-0.425-0.184-0.783-0.276-1.073-0.276c-0.677,0-1.33,0.278-1.958,0.834
			c-0.628,0.556-1.107,1.419-1.436,2.588c-0.251,0.899-0.377,2.717-0.377,5.452v5.336h-2.073V116.971z"/>
		<path fill="#5E5E5E" d="M74.482,127.513l1.711,0.898c-0.561,1.103-1.209,1.991-1.945,2.668c-0.735,0.676-1.563,1.191-2.481,1.544
			c-0.919,0.353-1.96,0.529-3.121,0.529c-2.574,0-4.586-0.844-6.038-2.531c-1.452-1.686-2.177-3.593-2.177-5.72
			c0-2,0.614-3.784,1.843-5.351c1.558-1.991,3.643-2.986,6.255-2.986c2.69,0,4.837,1.02,6.443,3.059
			c1.142,1.44,1.723,3.239,1.742,5.395H62.52c0.039,1.833,0.624,3.334,1.756,4.506c1.132,1.171,2.531,1.757,4.196,1.757
			c0.803,0,1.584-0.14,2.345-0.418c0.759-0.279,1.405-0.651,1.938-1.112C73.287,129.289,73.863,128.543,74.482,127.513z
			 M74.482,123.264c-0.271-1.083-0.666-1.947-1.184-2.596c-0.518-0.647-1.202-1.169-2.054-1.566
			c-0.852-0.396-1.748-0.595-2.686-0.595c-1.549,0-2.879,0.498-3.992,1.494c-0.813,0.725-1.428,1.812-1.844,3.262H74.482z"/>
		<path fill="#5E5E5E" d="M103.939,116.971v15.776h-2.001v-2.711c-0.851,1.034-1.806,1.813-2.864,2.334
			c-1.058,0.522-2.216,0.783-3.473,0.783c-2.233,0-4.14-0.81-5.72-2.429c-1.581-1.619-2.371-3.589-2.371-5.909
			c0-2.271,0.798-4.214,2.393-5.829c1.595-1.614,3.514-2.421,5.756-2.421c1.295,0,2.467,0.275,3.517,0.826
			c1.049,0.551,1.969,1.377,2.762,2.479v-2.9H103.939z M95.826,118.522c-1.129,0-2.172,0.278-3.128,0.833
			c-0.956,0.556-1.716,1.335-2.282,2.339c-0.564,1.004-0.847,2.066-0.847,3.186c0,1.111,0.285,2.172,0.855,3.187
			c0.569,1.013,1.334,1.803,2.295,2.368c0.96,0.565,1.991,0.847,3.092,0.847c1.11,0,2.163-0.28,3.157-0.84
			c0.995-0.561,1.76-1.318,2.295-2.274c0.536-0.956,0.804-2.032,0.804-3.23c0-1.824-0.601-3.35-1.803-4.577
			C99.063,119.136,97.584,118.522,95.826,118.522z"/>
		<path fill="#5E5E5E" d="M117.997,111.113h2.03v5.858h3.219v1.754h-3.219v14.022h-2.03v-14.022h-2.77v-1.754h2.77V111.113z"/>
		<path fill="#5E5E5E" d="M134.716,110.475c0.462,0,0.856,0.164,1.184,0.493c0.327,0.328,0.491,0.725,0.491,1.189
			c0,0.454-0.164,0.846-0.491,1.174c-0.327,0.329-0.722,0.493-1.184,0.493c-0.453,0-0.842-0.164-1.169-0.493
			c-0.328-0.329-0.491-0.72-0.491-1.174c0-0.464,0.163-0.861,0.491-1.189C133.874,110.639,134.263,110.475,134.716,110.475z
			 M133.708,116.971h2.03v15.776h-2.03V116.971z"/>
		<path fill="#5E5E5E" d="M146.185,116.971h2.16l5.296,11.5l5.232-11.5h2.175l-7.221,15.776h-0.377L146.185,116.971z"/>
		<path fill="#5E5E5E" d="M185.139,127.513l1.711,0.898c-0.562,1.103-1.209,1.991-1.945,2.668c-0.735,0.676-1.563,1.191-2.481,1.544
			c-0.919,0.353-1.96,0.529-3.121,0.529c-2.574,0-4.586-0.844-6.038-2.531c-1.451-1.686-2.177-3.593-2.177-5.72
			c0-2,0.614-3.784,1.843-5.351c1.557-1.991,3.642-2.986,6.255-2.986c2.69,0,4.838,1.02,6.444,3.059
			c1.142,1.44,1.722,3.239,1.742,5.395h-14.196c0.039,1.833,0.625,3.334,1.757,4.506c1.132,1.171,2.531,1.757,4.195,1.757
			c0.804,0,1.584-0.14,2.345-0.418c0.76-0.279,1.405-0.651,1.938-1.112C183.944,129.289,184.52,128.543,185.139,127.513z
			 M185.139,123.264c-0.271-1.083-0.665-1.947-1.183-2.596c-0.518-0.647-1.202-1.169-2.054-1.566s-1.747-0.595-2.686-0.595
			c-1.549,0-2.88,0.498-3.993,1.494c-0.813,0.725-1.428,1.812-1.844,3.262H185.139z"/>
		<path fill="#5E5E5E" d="M212.95,128.774l1.813-1.088c1.276,2.35,2.75,3.523,4.423,3.523c0.715,0,1.387-0.166,2.016-0.5
			c0.628-0.334,1.107-0.781,1.436-1.342s0.493-1.155,0.493-1.784c0-0.715-0.242-1.416-0.725-2.102
			c-0.667-0.947-1.885-2.088-3.654-3.422c-1.779-1.344-2.885-2.315-3.32-2.914c-0.754-1.005-1.131-2.093-1.131-3.263
			c0-0.928,0.222-1.774,0.667-2.538c0.445-0.763,1.071-1.365,1.878-1.805c0.807-0.439,1.685-0.66,2.632-0.66
			c1.005,0,1.945,0.249,2.82,0.747c0.875,0.499,1.8,1.414,2.777,2.748l-1.74,1.32c-0.803-1.063-1.486-1.765-2.052-2.103
			c-0.565-0.338-1.182-0.507-1.849-0.507c-0.86,0-1.563,0.261-2.11,0.783c-0.546,0.522-0.819,1.165-0.819,1.929
			c0,0.464,0.097,0.913,0.29,1.348c0.193,0.436,0.546,0.909,1.059,1.421c0.28,0.271,1.199,0.981,2.755,2.131
			c1.846,1.363,3.113,2.577,3.799,3.64c0.687,1.063,1.029,2.132,1.029,3.205c0,1.547-0.587,2.891-1.762,4.031
			s-2.603,1.711-4.285,1.711c-1.295,0-2.47-0.346-3.523-1.037C214.811,131.556,213.84,130.398,212.95,128.774z"/>
		<path fill="#5E5E5E" d="M250.615,127.513l1.711,0.898c-0.561,1.103-1.209,1.991-1.945,2.668c-0.735,0.676-1.563,1.191-2.482,1.544
			c-0.919,0.353-1.959,0.529-3.121,0.529c-2.574,0-4.586-0.844-6.037-2.531c-1.452-1.686-2.177-3.593-2.177-5.72
			c0-2,0.614-3.784,1.843-5.351c1.558-1.991,3.643-2.986,6.255-2.986c2.69,0,4.838,1.02,6.444,3.059
			c1.142,1.44,1.723,3.239,1.742,5.395h-14.196c0.039,1.833,0.624,3.334,1.756,4.506c1.132,1.171,2.531,1.757,4.196,1.757
			c0.803,0,1.584-0.14,2.344-0.418c0.76-0.279,1.406-0.651,1.938-1.112C249.419,129.289,249.995,128.543,250.615,127.513z
			 M250.615,123.264c-0.271-1.083-0.666-1.947-1.183-2.596c-0.519-0.647-1.203-1.169-2.055-1.566s-1.747-0.595-2.686-0.595
			c-1.549,0-2.88,0.498-3.993,1.494c-0.813,0.725-1.428,1.812-1.844,3.262H250.615z"/>
		<path fill="#5E5E5E" d="M263.585,116.971h2.073v2.306c0.619-0.908,1.271-1.587,1.957-2.037c0.687-0.45,1.402-0.674,2.146-0.674
			c0.561,0,1.16,0.179,1.798,0.536l-1.059,1.711c-0.426-0.184-0.782-0.276-1.073-0.276c-0.676,0-1.329,0.278-1.957,0.834
			c-0.629,0.556-1.106,1.419-1.436,2.588c-0.251,0.899-0.377,2.717-0.377,5.452v5.336h-2.073V116.971z"/>
		<path fill="#5E5E5E" d="M279.513,116.971h2.161l5.295,11.5l5.231-11.5h2.176l-7.222,15.776h-0.377L279.513,116.971z"/>
		<path fill="#5E5E5E" d="M305.889,110.475c0.462,0,0.856,0.164,1.184,0.493c0.327,0.328,0.491,0.725,0.491,1.189
			c0,0.454-0.164,0.846-0.491,1.174c-0.327,0.329-0.722,0.493-1.184,0.493c-0.453,0-0.843-0.164-1.17-0.493
			c-0.327-0.329-0.49-0.72-0.49-1.174c0-0.464,0.163-0.861,0.49-1.189C305.046,110.639,305.436,110.475,305.889,110.475z
			 M304.881,116.971h2.029v15.776h-2.029V116.971z"/>
		<path fill="#5E5E5E" d="M334.164,120.248l-1.609,1c-1.391-1.846-3.288-2.77-5.692-2.77c-1.922,0-3.517,0.618-4.786,1.854
			c-1.271,1.236-1.905,2.737-1.905,4.505c0,1.148,0.292,2.23,0.876,3.244c0.584,1.014,1.386,1.8,2.404,2.361
			c1.02,0.56,2.161,0.84,3.426,0.84c2.317,0,4.21-0.923,5.678-2.77l1.609,1.059c-0.754,1.135-1.767,2.016-3.038,2.642
			s-2.719,0.939-4.343,0.939c-2.494,0-4.563-0.792-6.206-2.377c-1.644-1.586-2.465-3.515-2.465-5.786
			c0-1.527,0.384-2.946,1.152-4.256c0.769-1.31,1.824-2.333,3.169-3.067c1.343-0.734,2.847-1.102,4.51-1.102
			c1.044,0,2.051,0.159,3.022,0.478s1.796,0.735,2.473,1.248C333.114,118.803,333.69,119.455,334.164,120.248z"/>
		<path fill="#5E5E5E" d="M359.067,127.513l1.711,0.898c-0.561,1.103-1.209,1.991-1.944,2.668c-0.735,0.676-1.563,1.191-2.482,1.544
			c-0.919,0.353-1.959,0.529-3.12,0.529c-2.573,0-4.586-0.844-6.037-2.531c-1.451-1.686-2.178-3.593-2.178-5.72
			c0-2,0.614-3.784,1.844-5.351c1.558-1.991,3.643-2.986,6.255-2.986c2.689,0,4.838,1.02,6.444,3.059
			c1.142,1.44,1.722,3.239,1.741,5.395h-14.196c0.039,1.833,0.624,3.334,1.757,4.506c1.133,1.171,2.531,1.757,4.196,1.757
			c0.803,0,1.584-0.14,2.344-0.418c0.76-0.279,1.406-0.651,1.938-1.112C357.872,129.289,358.448,128.543,359.067,127.513z
			 M359.067,123.264c-0.271-1.083-0.665-1.947-1.183-2.596c-0.519-0.647-1.203-1.169-2.055-1.566s-1.747-0.595-2.686-0.595
			c-1.549,0-2.88,0.498-3.993,1.494c-0.813,0.725-1.428,1.812-1.844,3.262H359.067z"/>
		<path fill="#5E5E5E" d="M380.738,118.696l-1.306,1.349c-1.086-1.053-2.146-1.58-3.184-1.58c-0.659,0-1.224,0.217-1.693,0.652
			c-0.471,0.435-0.705,0.942-0.705,1.522c0,0.512,0.193,1.001,0.581,1.464c0.388,0.474,1.201,1.03,2.441,1.667
			c1.511,0.783,2.538,1.537,3.08,2.263c0.533,0.734,0.8,1.561,0.8,2.479c0,1.296-0.456,2.393-1.365,3.292
			c-0.911,0.899-2.048,1.349-3.413,1.349c-0.91,0-1.779-0.198-2.606-0.594c-0.828-0.396-1.514-0.943-2.056-1.639l1.276-1.45
			c1.037,1.169,2.137,1.755,3.3,1.755c0.813,0,1.506-0.262,2.078-0.784c0.571-0.522,0.857-1.135,0.857-1.841
			c0-0.58-0.189-1.097-0.567-1.551c-0.378-0.445-1.229-1.005-2.557-1.683c-1.425-0.734-2.394-1.459-2.907-2.175
			c-0.513-0.715-0.77-1.532-0.77-2.45c0-1.198,0.409-2.194,1.228-2.987c0.817-0.792,1.852-1.188,3.101-1.188
			C377.804,116.565,379.267,117.276,380.738,118.696z"/>
	</g>
</g>
</svg>
