<?xml version="1.0" encoding="utf-8"?>
<!-- Generator: Adobe Illustrator 16.0.0, SVG Export Plug-In . SVG Version: 6.00 Build 0)  -->
<!DOCTYPE svg PUBLIC "-//W3C//DTD SVG 1.1//EN" "http://www.w3.org/Graphics/SVG/1.1/DTD/svg11.dtd">
<svg version="1.1" id="Layer_1" xmlns="http://www.w3.org/2000/svg" xmlns:xlink="http://www.w3.org/1999/xlink" x="0px" y="0px"
	 width="178.04px" height="36.228px" viewBox="0 0 178.04 36.228" enable-background="new 0 0 178.04 36.228" xml:space="preserve">
<g>
	<path fill="#EB2227" d="M19.874,7.025c2.783,0.462,5.137,1.659,7.058,3.598c2.52,2.547,3.782,5.736,3.782,9.57
		c0,3.907-1.282,7.13-3.848,9.673c-2.564,2.539-5.828,3.809-9.785,3.809c-2.522,0-4.84-0.602-6.955-1.809
		c-2.117-1.203-3.705-2.883-4.766-5.035c-0.573-1.166-0.979-2.354-1.243-3.567v12.964h29.357V7.025H19.874z"/>
	<path fill="#231F20" d="M52.552,10.122H46.28v2.819h3.102v6.386c-1.624-1.732-3.525-2.6-5.705-2.6
		c-2.057,0-3.899,0.767-5.536,2.302c-1.634,1.532-2.451,3.628-2.451,6.286c0,2.646,0.793,4.688,2.384,6.121
		c1.591,1.433,3.437,2.151,5.538,2.151c2.269,0,4.191-0.879,5.77-2.636v2.368h6.069v-2.818h-2.899V10.122z M47.807,29.261
		c-1.051,1.006-2.256,1.509-3.611,1.509c-1.401,0-2.606-0.479-3.612-1.435c-1.006-0.957-1.509-2.324-1.509-4.104
		c0-1.567,0.489-2.887,1.468-3.961c0.978-1.073,2.184-1.609,3.619-1.609c1.334,0,2.538,0.455,3.612,1.368
		c1.072,0.912,1.608,2.262,1.608,4.053C49.382,26.861,48.854,28.253,47.807,29.261 M89.942,13.025h2.719v6.637H82.57v-6.637h2.736
		v-2.903h-8.874v2.903h2.635v17.395h-2.635v0.082h-2.535v-20.38h-6.27v2.819h3.102v6.386c-1.624-1.732-3.526-2.6-5.703-2.6
		c-2.059,0-3.904,0.767-5.539,2.302c-1.635,1.532-2.452,3.628-2.452,6.286c0,2.646,0.797,4.688,2.387,6.121
		c1.589,1.433,3.435,2.151,5.535,2.151c2.269,0,4.192-0.879,5.772-2.636v2.368h14.577v-2.9H82.57v-7.855h10.091v7.855h-2.719v2.9
		h8.874v-2.9h-2.654V13.025h2.654v-2.903h-8.874V13.025z M69.152,29.261c-1.052,1.006-2.256,1.509-3.61,1.509
		c-1.403,0-2.605-0.479-3.609-1.435c-1.008-0.957-1.509-2.324-1.509-4.104c0-1.567,0.489-2.887,1.466-3.961
		c0.978-1.073,2.186-1.609,3.618-1.609c1.335,0,2.539,0.455,3.611,1.368c1.074,0.912,1.61,2.262,1.61,4.053
		C70.729,26.861,70.203,28.253,69.152,29.261 M109.487,16.727c-2.367,0-4.375,0.798-6.021,2.392
		c-1.644,1.597-2.468,3.641-2.468,6.13c0,2.491,0.813,4.537,2.441,6.135c1.631,1.603,3.646,2.401,6.047,2.401
		c2.334,0,4.334-0.789,5.996-2.366c1.66-1.58,2.493-3.637,2.493-6.17c0-2.535-0.835-4.589-2.504-6.163
		C113.808,17.513,111.812,16.727,109.487,16.727 M113.147,29.142c-0.984,1.029-2.203,1.543-3.66,1.543
		c-1.435,0-2.648-0.508-3.645-1.527c-0.994-1.018-1.492-2.324-1.492-3.918c0-1.537,0.484-2.83,1.45-3.875
		c0.968-1.047,2.197-1.57,3.687-1.57c1.422,0,2.636,0.513,3.636,1.535c1.001,1.025,1.502,2.328,1.502,3.91
		C114.625,26.812,114.133,28.112,113.147,29.142 M151.432,16.926c-1.225,0-2.188,0.101-2.896,0.3
		c-0.706,0.202-1.374,0.613-2.009,1.235c-0.634,0.623-1.13,1.406-1.485,2.352v-3.637h-5.786v2.82h3.253v10.506h-7.124V17.176h-6.02
		v2.82h2.852v8.739c-1.667,1.399-3.235,2.101-4.703,2.101c-0.489,0-0.896-0.134-1.216-0.398c-0.323-0.268-0.517-0.608-0.585-1.02
		c-0.068-0.412-0.1-1.211-0.1-2.402v-9.839h-5.454v2.82h2.286v7.42c0,1.67,0.115,2.879,0.35,3.629
		c0.232,0.748,0.703,1.363,1.409,1.834c0.706,0.473,1.597,0.709,2.676,0.709c1.702,0,3.479-0.707,5.337-2.119v1.852h16.979v-2.818
		h-3.52v-3.551c0-2.201,0.193-3.729,0.576-4.578c0.384-0.853,0.974-1.438,1.767-1.76c0.794-0.323,1.998-0.484,3.612-0.484h0.633
		v-3.203H151.432z"/>
	<polygon fill="#FAB816" points="8.741,0 17.019,20.049 0,6.601 	"/>
	<g>
		<path fill="#EB2227" d="M155.72,26.758c0-0.866-0.018-1.577-0.069-2.271h1.352l0.087,1.387h0.035
			c0.416-0.797,1.387-1.577,2.773-1.577c1.161,0,2.964,0.693,2.964,3.57v5.01h-1.525v-4.836c0-1.353-0.503-2.479-1.941-2.479
			c-1.006,0-1.786,0.71-2.046,1.56c-0.069,0.19-0.104,0.451-0.104,0.711v5.044h-1.525V26.758z"/>
		<path fill="#EB2227" d="M166.187,28.96c0.034,2.063,1.352,2.912,2.877,2.912c1.092,0,1.751-0.191,2.322-0.434l0.261,1.092
			c-0.538,0.242-1.456,0.52-2.791,0.52c-2.583,0-4.126-1.698-4.126-4.229c0-2.531,1.491-4.524,3.936-4.524
			c2.738,0,3.467,2.409,3.467,3.952c0,0.312-0.035,0.555-0.053,0.711H166.187z M170.658,27.868c0.018-0.971-0.398-2.479-2.114-2.479
			c-1.543,0-2.219,1.421-2.341,2.479H170.658z"/>
		<path fill="#EB2227" d="M175.855,22.079v2.409h2.185v1.161h-2.185v4.524c0,1.04,0.295,1.629,1.145,1.629
			c0.398,0,0.693-0.052,0.884-0.104l0.069,1.145c-0.295,0.121-0.763,0.207-1.353,0.207c-0.71,0-1.282-0.225-1.646-0.641
			c-0.434-0.451-0.589-1.196-0.589-2.185v-4.576h-1.3v-1.161h1.3v-2.011L175.855,22.079z"/>
	</g>
	<g>
		<path fill="#FAB816" d="M153.618,32.119c0,0.921-0.746,1.666-1.666,1.666c-0.919,0-1.665-0.745-1.665-1.666
			c0-0.92,0.746-1.666,1.665-1.666C152.872,30.453,153.618,31.199,153.618,32.119"/>
	</g>
</g>
</svg>
